<svg width="66" height="14" viewBox="0 0 66 14" fill="none" xmlns="http://www.w3.org/2000/svg">
<path fill-rule="evenodd" clip-rule="evenodd" d="M59.6508 6.80685C52.4708 11.4973 42.0639 13.9998 33.1036 13.9998C20.54 13.9998 9.22947 9.88139 0.672622 3.03162C0.000337992 2.49297 0.602702 1.7589 1.40945 2.17837C10.644 6.94032 22.062 9.80512 33.8566 9.80512C41.8111 9.80512 50.5615 8.3465 58.6074 5.31964C59.8229 4.86203 60.8394 6.02511 59.6508 6.80685Z" fill="#FF9900"/>
<path fill-rule="evenodd" clip-rule="evenodd" d="M62.6359 3.78003C61.7215 2.74089 56.5692 3.28906 54.2565 3.53216C53.552 3.60843 53.4444 3.06502 54.079 2.67415C58.1827 0.114421 64.9162 0.853264 65.7015 1.71127C66.4867 2.57405 65.4971 8.55628 61.6409 11.4115C61.0493 11.8501 60.4846 11.6165 60.7481 11.035C61.614 9.11875 63.5555 4.82394 62.6359 3.78003Z" fill="#FF9900"/>
</svg>
